<?xml version="1.0" standalone="no"?>
<!DOCTYPE svg PUBLIC "-//W3C//DTD SVG 20010904//EN"
 "http://www.w3.org/TR/2001/REC-SVG-20010904/DTD/svg10.dtd">
<svg version="1.0" xmlns="http://www.w3.org/2000/svg"
 width="112.000000pt" height="82.000000pt" viewBox="0 0 112.000000 82.000000"
 preserveAspectRatio="xMidYMid meet">

<g transform="translate(0.000000,82.000000) scale(0.100000,-0.100000)"
fill="#000000" stroke="none">
<path d="M530 700 c-11 -11 -20 -33 -20 -49 0 -24 6 -31 40 -45 22 -9 47 -16
55 -16 27 0 16 31 -15 41 -16 6 -30 17 -30 25 0 9 11 14 30 14 35 0 41 23 11
40 -29 15 -49 12 -71 -10z"/>
<path d="M167 634 c-4 -4 -7 -58 -7 -121 l0 -113 135 0 136 0 -3 118 -3 117
-126 3 c-69 1 -128 -1 -132 -4z"/>
<path d="M491 572 c-5 -9 -16 -43 -24 -76 -16 -61 -10 -104 15 -108 7 -1 -23
-4 -66 -7 -82 -6 -109 -23 -64 -40 20 -8 20 -10 4 -10 -20 -1 -76 -48 -76 -63
0 -5 9 -4 19 2 31 16 93 12 129 -10 21 -13 41 -38 54 -66 l20 -46 81 5 c45 3
92 8 105 12 18 6 22 4 22 -14 0 -35 18 -24 44 28 14 27 32 51 41 55 28 10 29
7 2 -15 -15 -11 -32 -38 -38 -60 -11 -36 -10 -41 11 -64 43 -46 121 -30 146
30 24 58 -8 114 -68 116 -18 1 -17 3 10 10 57 17 34 39 -39 39 -35 0 -40 2
-34 19 3 11 -5 47 -20 82 -14 34 -25 64 -25 66 0 2 9 3 20 3 17 0 20 7 20 41
l0 42 -42 -7 c-24 -4 -44 -11 -46 -16 -2 -6 -20 -10 -40 -10 -31 0 -42 7 -66
40 -33 44 -77 55 -95 22z m159 -114 l45 -3 12 -65 c12 -62 11 -67 -15 -120
-26 -54 -28 -55 -72 -58 -71 -4 -78 8 -66 103 4 33 24 61 34 50 7 -6 6 -31 -1
-68 -8 -43 -7 -61 1 -69 19 -19 35 5 53 83 16 68 16 72 -1 89 -10 10 -36 21
-59 25 -44 7 -44 7 -35 54 l7 32 26 -25 c18 -17 40 -26 71 -28z m-113 -124
c-3 -3 -12 -4 -19 -1 -8 3 -5 6 6 6 11 1 17 -2 13 -5z m331 -136 c15 -15 15
-61 0 -76 -26 -26 -88 0 -88 36 0 40 61 67 88 40z"/>
<path d="M288 253 c-30 -19 -63 -77 -53 -93 3 -6 13 -10 21 -10 8 0 14 -7 14
-15 0 -30 47 -65 85 -65 38 0 85 35 85 63 0 8 9 17 20 20 17 4 18 9 9 35 -16
48 -52 74 -106 79 -34 3 -56 -1 -75 -14z m112 -105 c-1 -35 -39 -53 -69 -32
-31 22 -26 32 17 37 20 2 40 4 45 5 4 1 7 -4 7 -10z"/>
</g>
</svg>
